# xmcd
#
# Track frame offsets: 
#        150
#        30917
#        56272
#        70177
#        93393
#        124256
#        135170
#        166970
#        178745
#        201472
#        209726
#        220955
#        244000
#        273231
#        284569
#
# Disc length: 4207 seconds
#
# Revision: 23
# Processed by: cddbd v1.5.2PL0 Copyright (c) Steve Scherf et al.
# Submitted via: ExactAudioCopy v0.99pb4
#
DISCID=e2106d0f
DTITLE=Friedrich Gulda - Beethoven: Piano Sonatas [Brilliant, Disc 4]
DYEAR=1967
DGENRE=Piano
TTITLE0=Piano Sonata in B-flat major, op. 22 - 1. Allegro con brio
TTITLE1=Piano Sonata in B-flat major, op. 22 - 2. Adagio con molto esp
TTITLE1=ressione
TTITLE2=Piano Sonata in B-flat major, op. 22 - 3. Menuetto
TTITLE3=Piano Sonata in B-flat major, op. 22 - 4. Rondo. Allegretto
TTITLE4=Piano Sonata in A-flat major, op. 26 - 1. Andante con variazio
TTITLE4=ni
TTITLE5=Piano Sonata in A-flat major, op. 26 - 2. Scherzo. Allegro mol
TTITLE5=to
TTITLE6=Piano Sonata in A-flat major, op. 26 - 3. Marcia funebre
TTITLE7=Piano Sonata in A-flat major, op. 26 - 4. Allegro 
TTITLE8=Piano Sonata in E-flat major, op.27 no.1 "Quasi una fantasia" 
TTITLE8=1. Andante - Allegro
TTITLE9=Piano Sonata in E-flat major, op.27 no.1 "Quasi una fantasia" 
TTITLE9=2. Allegro molto e vivace
TTITLE10=Piano Sonata in E-flat major, op.27 no.1 "Quasi una fantasia"
TTITLE10=3. Adagio con espressione
TTITLE11=Piano Sonata in E-flat major, op.27 no.1 "Quasi una fantasia"
TTITLE11=4. Allegro vivace - Presto
TTITLE12=Piano Sonata in C-sharp minor, op.27 no.2 "Mondschein" - 1. A
TTITLE12=dagio sostenuto
TTITLE13=Piano Sonata in C-sharp minor, op.27 no.2 "Mondschein" - 2. A
TTITLE13=llegretto
TTITLE14=Piano Sonata in C-sharp minor, op.27 no.2 "Mondschein" - 3. P
TTITLE14=resto agitato
EXTD=YEAR: 1967
EXTT0=
EXTT1=
EXTT2=
EXTT3=
EXTT4=
EXTT5=
EXTT6=
EXTT7=
EXTT8=
EXTT9=
EXTT10=
EXTT11=
EXTT12=
EXTT13=
EXTT14=
PLAYORDER=
